<svg width="258" height="283" viewBox="0 0 258 283" fill="none" xmlns="http://www.w3.org/2000/svg">
<path d="M179.153 57.4145C161.268 54.563 140.902 53.0415 119.691 53.0415C100.28 53.0415 81.5779 54.3139 64.8403 56.7131C64.8443 56.4563 64.848 56.1996 64.8594 55.9428C65.3032 41.0375 71.5651 26.8968 82.3067 16.5432C93.0484 6.18952 107.418 0.44427 122.343 0.535369C137.269 0.626467 151.567 6.54669 162.181 17.0307C172.795 27.5147 178.884 41.7307 179.145 56.6403C179.149 56.9009 179.153 57.1577 179.153 57.4145Z" fill="#021812"/>
<g opacity="0.1">
<path d="M129.493 0.514083C121.554 -0.557163 113.479 0.0499876 105.791 2.29618C98.1023 4.54238 90.972 8.37749 84.8621 13.553C78.7521 18.7285 73.7988 25.1288 70.3232 32.3392C66.8476 39.5496 64.9272 47.4092 64.6866 55.4085C64.675 55.6653 64.6712 55.9221 64.6675 56.1789C69.64 55.4661 74.7893 54.8553 80.0758 54.3452C80.7224 41.0187 86.0185 28.3388 95.0451 18.5059C104.072 8.67295 116.259 2.30749 129.493 0.514083Z" fill="white"/>
</g>
<path d="M204.158 61.9447C195.925 59.715 187.575 57.9441 179.145 56.6403C165.329 54.5013 151.401 53.1641 137.43 52.6352C131.61 52.3975 125.683 52.2749 119.691 52.2749C114.942 52.2749 110.231 52.3516 105.585 52.5049C91.9573 52.9071 78.3617 54.0548 64.8594 55.9427C54.8644 57.3177 44.9663 59.3224 35.2244 61.9447C12.5099 68.2187 0 76.6275 0 85.6189C0 94.6103 12.51 103.019 35.2244 109.293C51.1986 113.708 70.8939 116.717 92.354 118.097C101.212 118.672 110.369 118.963 119.691 118.963C129.044 118.963 138.232 118.668 147.116 118.093C166.647 116.832 184.716 114.222 199.838 110.428C199.919 110.405 199.995 110.385 200.076 110.366C201.096 110.113 202.101 109.849 203.095 109.584C203.452 109.485 203.805 109.389 204.158 109.293C204.178 109.285 204.198 109.279 204.219 109.274C204.557 109.182 204.89 109.086 205.224 108.994C205.892 108.803 206.551 108.615 207.2 108.419C207.23 108.412 207.257 108.404 207.284 108.396C207.848 108.228 208.401 108.059 208.949 107.89C209.398 107.749 209.843 107.611 210.284 107.469C210.606 107.365 210.925 107.262 211.239 107.158C211.47 107.082 211.696 107.009 211.918 106.932C212.221 106.833 212.525 106.729 212.824 106.626C212.95 106.583 213.077 106.541 213.2 106.495C213.487 106.399 213.767 106.3 214.047 106.2C214.351 106.093 214.654 105.982 214.953 105.874C215.202 105.786 215.452 105.694 215.697 105.602C215.904 105.522 216.108 105.445 216.315 105.368C216.879 105.158 217.431 104.939 217.976 104.725C218.248 104.613 218.521 104.506 218.789 104.395C219.054 104.288 219.322 104.177 219.583 104.065C220.013 103.885 220.435 103.705 220.849 103.525C221.049 103.433 221.252 103.345 221.448 103.261C221.597 103.192 221.743 103.126 221.893 103.057C222 103.011 222.108 102.962 222.211 102.912C222.598 102.735 222.982 102.555 223.358 102.375C224.801 101.685 226.147 100.98 227.398 100.26C235.243 95.7716 239.382 90.793 239.382 85.6189C239.382 76.6275 226.872 68.2187 204.158 61.9447ZM203.951 108.557C187.957 112.976 168.208 115.985 146.691 117.353C137.94 117.909 128.894 118.196 119.691 118.196C110.519 118.196 101.503 117.913 92.7798 117.357C71.2277 115.993 51.4479 112.984 35.4316 108.557C13.0777 102.379 0.76725 94.2347 0.76725 85.6189C0.768499 84.8576 0.863878 84.0994 1.05122 83.3615C3.00756 75.5889 15.0419 68.3145 35.4316 62.6805C45.0999 60.0787 54.9221 58.0856 64.8403 56.7131C78.4238 54.8145 92.1015 53.6629 105.811 53.2637C110.384 53.1142 115.011 53.0402 119.691 53.0414C125.603 53.0414 131.449 53.1602 137.196 53.3902C151.248 53.9144 165.258 55.2581 179.153 57.4145C187.51 58.7125 195.788 60.4705 203.951 62.6805C224.336 68.3145 236.367 75.585 238.327 83.3538C238.518 84.0938 238.614 84.8548 238.615 85.6189C238.615 94.2347 226.304 102.379 203.951 108.557Z" fill="#211952"/>
<path d="M239.163 85.9677C239.163 91.0881 234.94 95.9326 227.398 100.26C226.143 100.98 224.793 101.685 223.358 102.375C222.982 102.555 222.598 102.736 222.211 102.912C222.107 102.962 222 103.011 221.893 103.057C221.743 103.126 221.597 103.192 221.448 103.261C221.252 103.345 221.049 103.433 220.849 103.525C220.435 103.705 220.013 103.885 219.583 104.065C219.322 104.177 219.054 104.288 218.789 104.395C218.521 104.506 218.248 104.613 217.976 104.725C217.431 104.939 216.879 105.158 216.315 105.369C216.108 105.445 215.904 105.522 215.697 105.602C215.452 105.694 215.202 105.786 214.953 105.874C214.654 105.982 214.351 106.093 214.047 106.2C213.767 106.3 213.487 106.399 213.2 106.495C213.077 106.541 212.95 106.583 212.824 106.626C212.525 106.729 212.221 106.833 211.918 106.932C211.696 107.009 211.47 107.082 211.239 107.158C210.925 107.262 210.606 107.365 210.284 107.469C209.843 107.611 209.398 107.749 208.949 107.89C208.401 108.059 207.848 108.228 207.284 108.396C207.257 108.404 207.23 108.412 207.2 108.419C206.551 108.615 205.892 108.803 205.224 108.994C204.89 109.086 204.557 109.182 204.219 109.274C204.198 109.279 204.177 109.285 204.158 109.293C203.805 109.389 203.452 109.485 203.095 109.584C202.105 109.845 201.096 110.109 200.076 110.366C199.995 110.385 199.918 110.405 199.838 110.428C185.126 114.099 167.076 116.774 147.101 118.066C138.351 118.629 129.228 118.928 119.856 118.928C110.4 118.928 101.2 118.626 92.3807 118.051C39.7319 114.621 0.548584 101.559 0.548584 85.9677C0.552729 85.019 0.697472 84.0762 0.978102 83.1699C1.00114 83.235 1.02418 83.2963 1.05116 83.3615C6.52531 97.7262 45.3752 109.335 95.7835 112.168C103.506 112.605 111.505 112.831 119.691 112.831C127.912 112.831 135.941 112.601 143.694 112.164C194.061 109.32 232.872 97.7071 238.327 83.3538C238.419 83.1238 238.5 82.8939 238.569 82.6639C238.958 83.7223 239.159 84.8403 239.163 85.9677Z" fill="#211952"/>
<path d="M35.1667 81.8422C28.7821 81.8422 21.9966 80.4699 21.9966 77.9265C21.9966 75.383 28.7821 74.0107 35.1667 74.0107C41.5512 74.0107 48.3368 75.383 48.3368 77.9265C48.3368 80.4699 41.5513 81.8422 35.1667 81.8422ZM35.1667 74.7773C27.8575 74.7773 22.7638 76.437 22.7638 77.9265C22.7638 79.4159 27.8575 81.0757 35.1667 81.0757C42.4759 81.0757 47.5696 79.4159 47.5696 77.9265C47.5696 76.437 42.4759 74.7773 35.1667 74.7773Z" fill="#211952"/>
<path d="M62.404 99.8556C56.0194 99.8556 49.2339 98.4833 49.2339 95.9399C49.2339 93.3965 56.0195 92.0242 62.404 92.0242C68.7886 92.0242 75.5741 93.3965 75.5741 95.9399C75.5741 98.4833 68.7886 99.8556 62.404 99.8556ZM62.404 92.7907C55.0948 92.7907 50.0011 94.4504 50.0011 95.9399C50.0011 97.4294 55.0948 99.0891 62.404 99.0891C69.7131 99.0891 74.8069 97.4294 74.8069 95.9399C74.8069 94.4504 69.7132 92.7907 62.404 92.7907Z" fill="#211952"/>
<path d="M203.962 81.8422C197.577 81.8422 190.792 80.4699 190.792 77.9265C190.792 75.383 197.577 74.0107 203.962 74.0107C210.346 74.0107 217.132 75.383 217.132 77.9265C217.132 80.4699 210.346 81.8422 203.962 81.8422ZM203.962 74.7773C196.652 74.7773 191.559 76.437 191.559 77.9265C191.559 79.4159 196.652 81.0757 203.962 81.0757C211.271 81.0757 216.364 79.4159 216.364 77.9265C216.364 76.437 211.271 74.7773 203.962 74.7773Z" fill="#211952"/>
<path d="M176.724 99.8556C170.34 99.8556 163.554 98.4833 163.554 95.9399C163.554 93.3965 170.34 92.0242 176.724 92.0242C183.109 92.0242 189.894 93.3965 189.894 95.9399C189.894 98.4833 183.109 99.8556 176.724 99.8556ZM176.724 92.7907C169.415 92.7907 164.321 94.4504 164.321 95.9399C164.321 97.4294 169.415 99.0891 176.724 99.0891C184.033 99.0891 189.127 97.4294 189.127 95.9399C189.127 94.4504 184.033 92.7907 176.724 92.7907Z" fill="#211952"/>
<path d="M119.564 108.288C113.18 108.288 106.394 106.915 106.394 104.372C106.394 101.828 113.18 100.456 119.564 100.456C125.949 100.456 132.734 101.828 132.734 104.372C132.734 106.915 125.949 108.288 119.564 108.288ZM119.564 101.223C112.255 101.223 107.161 102.882 107.161 104.372C107.161 105.861 112.255 107.521 119.564 107.521C126.873 107.521 131.967 105.861 131.967 104.372C131.967 102.882 126.873 101.223 119.564 101.223Z" fill="#211952"/>
<path d="M129.273 188.841C138.174 188.841 145.39 181.632 145.39 172.739C145.39 163.846 138.174 156.637 129.273 156.637C120.372 156.637 113.156 163.846 113.156 172.739C113.156 181.632 120.372 188.841 129.273 188.841Z" fill="#826FFF"/>
<path d="M123.144 183.318L115.301 187.242L117.493 191.616L125.337 187.692L123.144 183.318Z" fill="#826FFF"/>
<path d="M118.527 191.172C118.992 190.467 117.844 188.891 115.963 187.652C114.082 186.413 112.18 185.98 111.714 186.684C111.249 187.389 112.397 188.965 114.279 190.205C116.16 191.444 118.062 191.877 118.527 191.172Z" fill="#826FFF"/>
<path d="M135.402 183.318L133.209 187.692L141.053 191.616L143.246 187.242L135.402 183.318Z" fill="#826FFF"/>
<path d="M144.268 190.205C146.149 188.965 147.297 187.389 146.832 186.684C146.367 185.98 144.465 186.413 142.583 187.652C140.702 188.891 139.554 190.467 140.019 191.172C140.484 191.877 142.387 191.444 144.268 190.205Z" fill="#826FFF"/>
<path d="M128.145 174.303C131.187 174.303 133.653 171.84 133.653 168.8C133.653 165.761 131.187 163.297 128.145 163.297C125.103 163.297 122.636 165.761 122.636 168.8C122.636 171.84 125.103 174.303 128.145 174.303Z" fill="white"/>
<path d="M129.485 167.745C130.199 167.032 130.195 165.871 129.476 165.153C128.757 164.434 127.595 164.43 126.881 165.143C126.167 165.857 126.171 167.018 126.89 167.736C127.609 168.454 128.771 168.459 129.485 167.745Z" fill="#3F3D56"/>
<path d="M141.987 155.222C142.23 149.261 137.087 144.212 130.501 143.944C123.915 143.677 118.38 148.293 118.138 154.254C117.895 160.215 122.473 161.569 129.059 161.837C135.645 162.104 141.745 161.183 141.987 155.222Z" fill="#021812"/>
<path d="M151.278 181.17C152.338 180.261 150.847 176.789 147.948 173.415C145.049 170.042 141.839 168.044 140.779 168.953C139.719 169.862 141.21 173.334 144.109 176.708C147.008 180.082 150.217 182.08 151.278 181.17Z" fill="#826FFF"/>
<path d="M114.483 176.708C117.382 173.334 118.872 169.862 117.812 168.953C116.752 168.044 113.543 170.041 110.644 173.415C107.745 176.789 106.254 180.261 107.314 181.17C108.374 182.079 111.584 180.082 114.483 176.708Z" fill="#826FFF"/>
<path d="M133.7 179.084C133.874 180.042 133.661 181.029 133.106 181.829C132.552 182.629 131.703 183.177 130.744 183.351C129.786 183.525 128.798 183.312 127.997 182.758C127.196 182.205 126.648 181.356 126.474 180.398L126.473 180.391C126.111 178.398 127.654 177.692 129.65 177.331C131.646 176.97 133.338 177.09 133.7 179.084Z" fill="white"/>
<path d="M102.044 189.867C101.841 189.867 101.646 189.786 101.502 189.642C101.358 189.498 101.277 189.304 101.277 189.1V143.875C101.277 143.672 101.358 143.477 101.502 143.333C101.646 143.189 101.841 143.109 102.044 143.109C102.248 143.109 102.443 143.189 102.587 143.333C102.731 143.477 102.812 143.672 102.812 143.875V189.1C102.812 189.304 102.731 189.498 102.587 189.642C102.443 189.786 102.248 189.867 102.044 189.867Z" fill="#CDC5FF"/>
<path d="M90.5356 230.493C90.3321 230.493 90.1369 230.412 89.993 230.268C89.8492 230.125 89.7683 229.93 89.7683 229.726V196.766C89.7683 196.562 89.8491 196.367 89.993 196.224C90.1369 196.08 90.3321 195.999 90.5356 195.999C90.739 195.999 90.9342 196.08 91.0781 196.224C91.222 196.367 91.3028 196.562 91.3028 196.766V229.726C91.3028 229.93 91.222 230.125 91.0781 230.268C90.9342 230.412 90.739 230.493 90.5356 230.493Z" fill="#CDC5FF"/>
<path d="M120.075 203.281C119.871 203.281 119.676 203.2 119.532 203.057C119.388 202.913 119.307 202.718 119.307 202.515V157.289C119.307 157.086 119.388 156.891 119.532 156.747C119.676 156.604 119.871 156.523 120.075 156.523C120.278 156.523 120.473 156.604 120.617 156.747C120.761 156.891 120.842 157.086 120.842 157.289V202.515C120.842 202.718 120.761 202.913 120.617 203.057C120.473 203.2 120.278 203.281 120.075 203.281Z" fill="#CDC5FF"/>
<path d="M108.949 235.858C108.746 235.858 108.551 235.778 108.407 235.634C108.263 235.49 108.182 235.295 108.182 235.092V216.695C108.182 216.492 108.263 216.297 108.407 216.153C108.551 216.009 108.746 215.929 108.949 215.929C109.153 215.929 109.348 216.009 109.492 216.153C109.636 216.297 109.717 216.492 109.717 216.695V235.092C109.717 235.295 109.636 235.49 109.492 235.634C109.348 235.778 109.153 235.858 108.949 235.858Z" fill="#CDC5FF"/>
<path d="M124.678 141.575C124.475 141.575 124.28 141.495 124.136 141.351C123.992 141.207 123.911 141.012 123.911 140.809V122.412C123.911 122.209 123.992 122.014 124.136 121.87C124.279 121.727 124.475 121.646 124.678 121.646C124.882 121.646 125.077 121.727 125.221 121.87C125.365 122.014 125.445 122.209 125.445 122.412V140.809C125.445 141.012 125.365 141.207 125.221 141.351C125.077 141.495 124.882 141.575 124.678 141.575Z" fill="#CDC5FF"/>
<path d="M86.3156 149.624C86.1121 149.624 85.917 149.543 85.7731 149.4C85.6292 149.256 85.5484 149.061 85.5483 148.858V130.461C85.5483 130.258 85.6292 130.063 85.7731 129.919C85.9169 129.775 86.1121 129.694 86.3156 129.694C86.5191 129.694 86.7142 129.775 86.8581 129.919C87.002 130.063 87.0828 130.258 87.0828 130.461V148.858C87.0828 149.061 87.002 149.256 86.8581 149.4C86.7142 149.543 86.5191 149.624 86.3156 149.624Z" fill="#CDC5FF"/>
<path d="M153.067 151.54C152.863 151.54 152.668 151.46 152.524 151.316C152.38 151.172 152.299 150.977 152.299 150.774V132.377C152.299 132.174 152.38 131.979 152.524 131.835C152.668 131.691 152.863 131.611 153.067 131.611C153.27 131.611 153.465 131.691 153.609 131.835C153.753 131.979 153.834 132.174 153.834 132.377V150.774C153.834 150.977 153.753 151.172 153.609 151.316C153.465 151.46 153.27 151.54 153.067 151.54Z" fill="#CDC5FF"/>
<path d="M151.532 209.03C151.328 209.03 151.133 208.949 150.989 208.805C150.845 208.662 150.765 208.467 150.765 208.263V186.034C150.765 185.831 150.845 185.636 150.989 185.492C151.133 185.348 151.328 185.268 151.532 185.268C151.735 185.268 151.931 185.348 152.074 185.492C152.218 185.636 152.299 185.831 152.299 186.034V208.263C152.299 208.467 152.218 208.662 152.074 208.805C151.931 208.949 151.735 209.03 151.532 209.03Z" fill="#CDC5FF"/>
<path d="M136.187 228.577C135.983 228.577 135.788 228.496 135.644 228.352C135.501 228.208 135.42 228.013 135.42 227.81V194.849C135.42 194.646 135.501 194.451 135.644 194.307C135.788 194.164 135.983 194.083 136.187 194.083C136.39 194.083 136.586 194.164 136.729 194.307C136.873 194.451 136.954 194.646 136.954 194.849V227.81C136.954 228.013 136.873 228.208 136.729 228.352C136.586 228.496 136.39 228.577 136.187 228.577Z" fill="#CDC5FF"/>
<path d="M139.256 172.237C139.053 172.237 138.857 172.156 138.714 172.012C138.57 171.868 138.489 171.673 138.489 171.47V126.245C138.489 126.042 138.57 125.847 138.713 125.703C138.857 125.559 139.053 125.478 139.256 125.478C139.46 125.478 139.655 125.559 139.799 125.703C139.942 125.847 140.023 126.042 140.023 126.245V171.47C140.023 171.673 139.942 171.868 139.799 172.012C139.655 172.156 139.46 172.237 139.256 172.237Z" fill="#CDC5FF"/>
<path d="M233.318 268.473C234.417 267.554 232.932 263.977 230.004 260.482C227.075 256.987 223.81 254.899 222.712 255.817C221.614 256.736 223.098 260.314 226.027 263.808C228.956 267.303 232.22 269.392 233.318 268.473Z" fill="#826FFF"/>
<path d="M226.116 264.499C229.002 255.851 224.324 246.503 215.667 243.62C207.011 240.737 197.654 245.411 194.769 254.059C191.883 262.708 196.561 272.055 205.218 274.938C213.874 277.821 223.231 273.147 226.116 264.499Z" fill="#826FFF"/>
<path d="M217.435 272.233H212.416V281.218H217.435V272.233Z" fill="#826FFF"/>
<path d="M207.397 272.233H202.377V281.218H207.397V272.233Z" fill="#826FFF"/>
<path d="M213.253 282.889C215.563 282.889 217.435 282.188 217.435 281.322C217.435 280.457 215.563 279.755 213.253 279.755C210.942 279.755 209.07 280.457 209.07 281.322C209.07 282.188 210.942 282.889 213.253 282.889Z" fill="#826FFF"/>
<path d="M203.214 282.68C205.524 282.68 207.397 281.979 207.397 281.113C207.397 280.248 205.524 279.546 203.214 279.546C200.904 279.546 199.031 280.248 199.031 281.113C199.031 281.979 200.904 282.68 203.214 282.68Z" fill="#826FFF"/>
<path d="M205.255 238.53C206.73 232.595 213.242 229.102 219.8 230.729C226.357 232.355 230.478 238.486 229.002 244.422C227.527 250.357 222.633 250.376 216.075 248.75C209.517 247.123 203.779 244.466 205.255 238.53Z" fill="#021812"/>
<path d="M199.297 255.157C199.911 253.864 197.067 251.233 192.945 249.279C188.822 247.326 184.983 246.791 184.369 248.083C183.756 249.376 186.6 252.008 190.722 253.961C194.844 255.914 198.683 256.45 199.297 255.157Z" fill="#826FFF"/>
<path d="M207.972 261.299C211.014 261.299 213.481 258.836 213.481 255.796C213.481 252.757 211.014 250.293 207.972 250.293C204.93 250.293 202.464 252.757 202.464 255.796C202.464 258.836 204.93 261.299 207.972 261.299Z" fill="white"/>
<path d="M205.708 255.658C206.722 255.658 207.545 254.837 207.545 253.824C207.545 252.811 206.722 251.989 205.708 251.989C204.694 251.989 203.872 252.811 203.872 253.824C203.872 254.837 204.694 255.658 205.708 255.658Z" fill="#3F3D56"/>
<path d="M207.925 269.586C209.196 269.586 210.227 268.556 210.227 267.286C210.227 266.016 209.196 264.987 207.925 264.987C206.654 264.987 205.623 266.016 205.623 267.286C205.623 268.556 206.654 269.586 207.925 269.586Z" fill="white"/>
<path d="M257.616 283H167.081C166.979 283 166.882 282.96 166.81 282.888C166.738 282.816 166.697 282.718 166.697 282.617C166.697 282.515 166.738 282.418 166.81 282.346C166.882 282.274 166.979 282.233 167.081 282.233H257.616C257.718 282.233 257.816 282.274 257.888 282.346C257.96 282.418 258 282.515 258 282.617C258 282.718 257.96 282.816 257.888 282.888C257.816 282.96 257.718 283 257.616 283Z" fill="#3F3D56"/>
</svg>
